<?xml version="1.0" standalone="no"?>
<!DOCTYPE svg PUBLIC "-//W3C//DTD SVG 20010904//EN"
 "http://www.w3.org/TR/2001/REC-SVG-20010904/DTD/svg10.dtd">
<svg version="1.0" xmlns="http://www.w3.org/2000/svg"
 width="500.000000pt" height="500.000000pt" viewBox="0 0 500.000000 500.000000"
 preserveAspectRatio="xMidYMid meet">
<metadata>
Created by potrace 1.11, written by Peter Selinger 2001-2013
</metadata>
<g transform="translate(0.000000,500.000000) scale(0.100000,-0.100000)"
fill="#000000" stroke="none">
<path d="M950 2993 l0 -1248 230 230 230 230 0 243 0 243 203 -1 c111 0 213
-1 227 0 l26 0 -1 213 -1 212 -184 2 c-102 1 -203 2 -226 2 l-40 1 0 348 1
347 403 0 402 0 0 213 0 212 -635 0 -635 0 0 -1247z"/>
<path d="M2419 4185 c0 -69 0 -1466 0 -1486 1 -15 25 -16 230 -16 l229 1 0
556 c1 305 1 560 1 567 1 8 64 10 239 8 130 -2 248 -6 262 -9 147 -32 182 -48
241 -107 50 -50 87 -128 101 -211 l10 -63 190 187 190 187 -37 69 c-76 144
-191 253 -327 309 -130 52 -178 56 -775 57 l-553 2 -1 -51z"/>
<path d="M3958 3279 l-216 -214 -5 -130 c-3 -71 -11 -155 -17 -185 -22 -101
-88 -193 -170 -235 -89 -45 -143 -49 -652 -50 l-478 0 -1 -25 c-1 -39 -1
-1523 0 -1542 1 -17 19 -18 229 -18 l229 0 0 586 c0 322 3 587 5 589 2 2 121
5 263 6 403 3 525 21 680 99 134 68 214 161 280 325 21 53 54 177 61 234 3 25
8 57 11 71 8 33 11 614 4 664 l-6 39 -217 -214z"/>
<path d="M1237 1662 c-114 -114 -207 -209 -207 -212 0 -3 262 -5 583 -5 l582
0 1 213 2 212 -377 0 -376 0 -208 -208z"/>
</g>
</svg>
